<svg width="794" height="208" viewBox="0 0 794 208" fill="none" xmlns="http://www.w3.org/2000/svg">
<path d="M686.137 171.767C686.706 168.783 685.818 166.509 683.473 164.946C681.2 163.312 678.464 162.104 675.267 161.322C672.141 160.47 669.619 159.795 667.7 159.297C663.366 158.161 659.068 156.704 654.805 154.928C650.542 153.081 646.67 150.807 643.188 148.107C639.778 145.336 637.042 142.032 634.982 138.196C632.993 134.288 632.104 129.741 632.318 124.554C632.531 118.16 634.129 112.618 637.113 107.929C640.169 103.239 644.112 99.3673 648.943 96.3121C653.774 93.186 659.032 90.8769 664.716 89.3848C670.471 87.8928 676.191 87.2178 681.875 87.3599C689.69 87.431 697.044 88.8164 703.935 91.5163C710.898 94.2162 716.547 98.337 720.881 103.879C725.286 109.421 727.524 116.455 727.595 124.981L692.745 124.874C692.816 122.103 692.461 119.687 691.679 117.627C690.969 115.567 689.725 114.003 687.949 112.938C686.173 111.801 683.757 111.233 680.702 111.233C678.429 111.233 676.191 111.694 673.988 112.618C671.786 113.542 669.867 114.856 668.233 116.561C666.67 118.266 665.675 120.327 665.249 122.743C664.823 124.803 665.107 126.544 666.102 127.965C667.096 129.315 668.446 130.416 670.151 131.268C671.857 132.121 673.633 132.832 675.48 133.4C677.398 133.897 679.104 134.288 680.596 134.572C687.061 136.135 693.313 138.231 699.353 140.86C705.463 143.418 710.436 147.077 714.273 151.837C718.181 156.526 720.028 162.779 719.815 170.594C719.602 177.202 717.826 182.85 714.486 187.54C711.147 192.158 706.848 195.923 701.591 198.836C696.404 201.678 690.791 203.739 684.752 205.018C678.784 206.368 672.993 207.007 667.38 206.936C659.565 206.794 652.176 205.231 645.213 202.247C638.25 199.192 632.566 194.787 628.161 189.032C623.827 183.206 621.554 176.065 621.34 167.61L653.739 167.717C653.81 171.056 654.414 173.863 655.551 176.136C656.759 178.339 658.499 180.044 660.773 181.252C663.046 182.388 665.853 182.957 669.192 182.957C671.679 182.957 674.095 182.602 676.439 181.891C678.855 181.11 680.915 179.902 682.621 178.268C684.397 176.562 685.569 174.395 686.137 171.767Z" fill="#9F1239"/>
<path d="M562.618 206.936C554.66 206.794 547.413 205.338 540.876 202.567C534.34 199.725 528.798 195.817 524.251 190.843C519.704 185.87 516.329 180.044 514.126 173.365C511.995 166.616 511.213 159.262 511.782 151.304L512.208 147.148C513.061 138.764 515.05 130.949 518.176 123.702C521.302 116.384 525.494 109.989 530.752 104.518C536.01 98.9766 542.191 94.6781 549.296 91.623C556.472 88.5679 564.5 87.1469 573.382 87.36C581.41 87.5021 588.337 89.1007 594.164 92.1558C600.061 95.211 604.856 99.3674 608.551 104.625C612.246 109.812 614.803 115.78 616.224 122.529C617.716 129.208 618.072 136.313 617.29 143.844L615.265 158.445H523.611L527.235 135.958L583.719 136.064L584.359 132.974C584.856 129.634 584.714 126.615 583.932 123.915C583.151 121.215 581.694 119.084 579.563 117.52C577.431 115.886 574.554 114.998 570.93 114.856C566.525 114.785 562.866 115.744 559.953 117.734C557.111 119.723 554.802 122.352 553.026 125.62C551.321 128.888 550.006 132.441 549.083 136.278C548.159 140.043 547.484 143.667 547.058 147.148L546.631 151.198C546.347 154.679 546.454 158.054 546.951 161.322C547.449 164.591 548.443 167.539 549.935 170.168C551.498 172.797 553.594 174.928 556.223 176.563C558.852 178.126 562.156 178.978 566.135 179.12C571.463 179.262 576.437 178.268 581.055 176.136C585.673 174.005 589.83 171.092 593.524 167.397L608.125 186.794C604.928 191.625 600.807 195.533 595.762 198.517C590.718 201.43 585.282 203.561 579.456 204.911C573.701 206.332 568.088 207.007 562.618 206.936Z" fill="#9F1239"/>
<path d="M512.741 41.1066L484.392 204.804H449.222L477.571 41.1066H512.741Z" fill="#9F1239"/>
<path d="M453.592 89.4913L449.222 114.43H381.654L386.024 89.4913H453.592ZM405.1 60.8229H440.163L421.832 167.397C421.548 169.884 421.548 171.944 421.832 173.578C422.117 175.141 422.863 176.349 424.071 177.202C425.349 177.983 427.303 178.445 429.932 178.587C431.424 178.658 432.916 178.623 434.408 178.481C435.9 178.339 437.392 178.196 438.884 178.054L436.433 204.058C433.378 205.053 430.252 205.764 427.055 206.19C423.928 206.616 420.731 206.829 417.463 206.829C410.216 206.687 404.141 205.231 399.239 202.46C394.407 199.618 390.89 195.604 388.688 190.417C386.556 185.159 385.81 178.907 386.45 171.66L405.1 60.8229Z" fill="#9F1239"/>
<path d="M380.694 89.4913L376.325 114.43H308.757L313.126 89.4913H380.694ZM332.203 60.8229H367.266L348.935 167.397C348.651 169.884 348.651 171.944 348.935 173.578C349.22 175.141 349.966 176.349 351.173 177.202C352.452 177.983 354.406 178.445 357.035 178.587C358.527 178.658 360.019 178.623 361.511 178.481C363.003 178.339 364.495 178.196 365.987 178.054L363.536 204.058C360.481 205.053 357.355 205.764 354.158 206.19C351.031 206.616 347.834 206.829 344.566 206.829C337.319 206.687 331.244 205.231 326.342 202.46C321.51 199.618 317.993 195.604 315.791 190.417C313.659 185.159 312.913 178.907 313.553 171.66L332.203 60.8229Z" fill="#9F1239"/>
<path d="M300.337 89.4911L280.408 204.804H245.238L265.274 89.4911H300.337Z" fill="#9F1239"/>
<path d="M191.418 41L162.963 204.804H127.9L156.355 41H191.418ZM255.789 89.4912L196.533 148.746L166.799 174.644L154.543 150.025L180.014 122.423L211.347 89.4912H255.789ZM197.919 204.804L176.711 150.984L204.313 133.08L236.499 204.804H197.919Z" fill="#9F1239"/>
<path d="M81.5393 162.814C82.1788 159.475 81.9301 156.633 80.7933 154.288C79.7276 151.944 78.0934 149.954 75.8909 148.32C73.7594 146.686 71.3082 145.301 68.5373 144.164C65.8374 142.956 63.2086 141.855 60.6508 140.86C55.109 138.657 49.6381 136.171 44.2384 133.4C38.8386 130.558 33.9362 127.218 29.5312 123.382C25.1261 119.545 21.6802 115.069 19.1935 109.953C16.7778 104.838 15.7476 98.8343 16.1028 91.9425C16.6002 84.056 18.8382 77.2708 22.817 71.5868C26.7958 65.9029 31.8758 61.2847 38.0571 57.7322C44.3094 54.1087 51.0236 51.4798 58.1996 49.8457C65.4466 48.1405 72.516 47.359 79.4078 47.5011C89.2126 47.6432 97.9517 49.6326 105.625 53.4692C113.369 57.3059 119.444 62.8122 123.849 69.9882C128.254 77.0931 130.386 85.6901 130.244 95.7791H94.1151C94.2572 91.8004 93.7243 88.3545 92.5164 85.4414C91.3797 82.4574 89.4968 80.1483 86.868 78.5141C84.2392 76.8089 80.8288 75.9208 76.6369 75.8498C73.1555 75.7787 69.6741 76.3471 66.1927 77.555C62.7112 78.6918 59.6916 80.468 57.1339 82.8837C54.5761 85.2994 52.9419 88.4255 52.2314 92.2622C51.7341 95.1752 52.1959 97.733 53.6169 99.9355C55.0379 102.067 56.9918 103.914 59.4785 105.477C61.9652 106.969 64.5585 108.248 67.2584 109.314C70.0293 110.38 72.445 111.303 74.5054 112.085C80.3315 114.287 85.9089 116.881 91.2376 119.865C96.6373 122.778 101.398 126.224 105.518 130.203C109.71 134.181 112.908 138.835 115.11 144.164C117.384 149.421 118.307 155.532 117.881 162.494C117.313 170.523 115.181 177.379 111.487 183.063C107.792 188.747 103.032 193.365 97.2057 196.918C91.3797 200.47 84.9852 203.064 78.0224 204.698C71.0595 206.332 63.9901 207.114 56.8141 207.042C48.7856 206.9 41.2898 205.693 34.327 203.419C27.3642 201.074 21.2894 197.699 16.1028 193.294C10.9162 188.818 6.90194 183.347 4.05996 176.882C1.21799 170.345 -0.131949 162.85 0.0101499 154.395L36.5651 154.501C36.3519 158.48 36.6006 161.997 37.3111 165.052C38.0926 168.036 39.3715 170.559 41.1477 172.619C42.995 174.608 45.3752 176.136 48.2882 177.202C51.2012 178.196 54.7182 178.694 58.839 178.694C62.3205 178.694 65.6598 178.161 68.857 177.095C72.1253 175.958 74.8962 174.218 77.1698 171.873C79.4434 169.528 80.8999 166.509 81.5393 162.814Z" fill="#9F1239"/>
<path d="M230 76.2939L256.67 76.2926L283.145 41.1431L256.475 41.1431L230 76.2939Z" fill="#9F1239"/>
<path d="M230 5.26489e-06L256.67 1.75991e-06L283.145 35.1509L256.475 35.1509L230 5.26489e-06Z" fill="#9F1239"/>
<path d="M316.989 35.1512L290.319 35.1512L263.844 0.000333329L290.513 0.000329824L316.989 35.1512Z" fill="#9F1239"/>
<path d="M316.989 41.1449L290.319 41.1449L263.843 76.2957L290.513 76.2957L316.989 41.1449Z" fill="#9F1239"/>
<ellipse cx="759" cy="167.5" rx="21" ry="16.5" fill="#FF3434"/>
<path d="M761.084 162.499C761.047 162.15 760.872 161.877 760.559 161.682C760.252 161.486 759.783 161.389 759.154 161.389C758.753 161.389 758.424 161.425 758.168 161.499C757.916 161.568 757.73 161.664 757.608 161.787C757.487 161.909 757.424 162.049 757.42 162.206C757.41 162.335 757.441 162.452 757.51 162.557C757.585 162.658 757.702 162.75 757.86 162.834C758.019 162.915 758.221 162.988 758.469 163.054C758.716 163.121 759.009 163.18 759.35 163.232L760.524 163.421C761.317 163.547 761.995 163.713 762.559 163.919C763.124 164.125 763.585 164.367 763.944 164.647C764.303 164.923 764.566 165.233 764.734 165.579C764.907 165.925 764.995 166.302 765 166.71C764.995 167.416 764.76 168.013 764.294 168.502C763.828 168.991 763.161 169.363 762.294 169.618C761.431 169.873 760.394 170 759.182 170C757.937 170 756.851 169.862 755.923 169.586C755 169.31 754.282 168.886 753.769 168.313C753.261 167.737 753.005 167 753 166.103H756.692C756.716 166.431 756.825 166.707 757.021 166.93C757.217 167.154 757.492 167.323 757.846 167.439C758.205 167.554 758.632 167.611 759.126 167.611C759.541 167.611 759.888 167.573 760.168 167.496C760.448 167.419 760.66 167.313 760.804 167.177C760.949 167.04 761.023 166.885 761.028 166.71C761.023 166.546 760.951 166.403 760.811 166.281C760.676 166.155 760.452 166.043 760.14 165.946C759.828 165.844 759.406 165.75 758.874 165.663L757.448 165.432C756.179 165.226 755.179 164.882 754.448 164.4C753.72 163.915 753.359 163.253 753.364 162.415C753.359 161.734 753.601 161.139 754.091 160.629C754.585 160.116 755.268 159.716 756.14 159.43C757.016 159.143 758.021 159 759.154 159C760.31 159 761.31 159.145 762.154 159.435C762.998 159.725 763.648 160.133 764.105 160.66C764.566 161.184 764.8 161.797 764.804 162.499H761.084Z" fill="white"/>
<path d="M777.204 170.464C775.693 168.299 773.678 159.636 763.099 155.305C752.519 150.974 772.138 152.877 775.664 159.916C779.19 166.954 778.716 172.63 777.204 170.464Z" fill="white" fill-opacity="0.2"/>
<ellipse cx="726" cy="165.5" rx="21" ry="16.5" fill="#24B10D"/>
<path d="M728.084 160.499C728.047 160.15 727.872 159.877 727.559 159.682C727.252 159.486 726.783 159.389 726.154 159.389C725.753 159.389 725.424 159.425 725.168 159.499C724.916 159.568 724.73 159.664 724.608 159.787C724.487 159.909 724.424 160.049 724.42 160.206C724.41 160.335 724.441 160.452 724.51 160.557C724.585 160.658 724.702 160.75 724.86 160.834C725.019 160.915 725.221 160.988 725.469 161.054C725.716 161.121 726.009 161.18 726.35 161.232L727.524 161.421C728.317 161.547 728.995 161.713 729.559 161.919C730.124 162.125 730.585 162.367 730.944 162.647C731.303 162.923 731.566 163.233 731.734 163.579C731.907 163.925 731.995 164.302 732 164.71C731.995 165.416 731.76 166.013 731.294 166.502C730.828 166.991 730.161 167.363 729.294 167.618C728.431 167.873 727.394 168 726.182 168C724.937 168 723.851 167.862 722.923 167.586C722 167.31 721.282 166.886 720.769 166.313C720.261 165.737 720.005 165 720 164.103H723.692C723.716 164.431 723.825 164.707 724.021 164.93C724.217 165.154 724.492 165.323 724.846 165.439C725.205 165.554 725.632 165.611 726.126 165.611C726.541 165.611 726.888 165.573 727.168 165.496C727.448 165.419 727.66 165.313 727.804 165.177C727.949 165.04 728.023 164.885 728.028 164.71C728.023 164.546 727.951 164.403 727.811 164.281C727.676 164.155 727.452 164.043 727.14 163.946C726.828 163.844 726.406 163.75 725.874 163.663L724.448 163.432C723.179 163.226 722.179 162.882 721.448 162.4C720.72 161.915 720.359 161.253 720.364 160.415C720.359 159.734 720.601 159.139 721.091 158.629C721.585 158.116 722.268 157.716 723.14 157.43C724.016 157.143 725.021 157 726.154 157C727.31 157 728.31 157.145 729.154 157.435C729.998 157.725 730.648 158.133 731.105 158.66C731.566 159.184 731.8 159.797 731.804 160.499H728.084Z" fill="white"/>
<path d="M744.204 168.464C742.693 166.299 740.678 157.636 730.099 153.305C719.519 148.974 739.138 150.877 742.664 157.916C746.19 164.954 745.716 170.63 744.204 168.464Z" fill="white" fill-opacity="0.2"/>
<ellipse cx="773" cy="182.5" rx="21" ry="16.5" fill="#FFE600"/>
<path d="M775.084 177.499C775.047 177.15 774.872 176.877 774.559 176.682C774.252 176.486 773.783 176.389 773.154 176.389C772.753 176.389 772.424 176.425 772.168 176.499C771.916 176.568 771.73 176.664 771.608 176.787C771.487 176.909 771.424 177.049 771.42 177.206C771.41 177.335 771.441 177.452 771.51 177.557C771.585 177.658 771.702 177.75 771.86 177.834C772.019 177.915 772.221 177.988 772.469 178.054C772.716 178.121 773.009 178.18 773.35 178.232L774.524 178.421C775.317 178.547 775.995 178.713 776.559 178.919C777.124 179.125 777.585 179.367 777.944 179.647C778.303 179.923 778.566 180.233 778.734 180.579C778.907 180.925 778.995 181.302 779 181.71C778.995 182.416 778.76 183.013 778.294 183.502C777.828 183.991 777.161 184.363 776.294 184.618C775.431 184.873 774.394 185 773.182 185C771.937 185 770.851 184.862 769.923 184.586C769 184.31 768.282 183.886 767.769 183.313C767.261 182.737 767.005 182 767 181.103H770.692C770.716 181.431 770.825 181.707 771.021 181.93C771.217 182.154 771.492 182.323 771.846 182.439C772.205 182.554 772.632 182.611 773.126 182.611C773.541 182.611 773.888 182.573 774.168 182.496C774.448 182.419 774.66 182.313 774.804 182.177C774.949 182.04 775.023 181.885 775.028 181.71C775.023 181.546 774.951 181.403 774.811 181.281C774.676 181.155 774.452 181.043 774.14 180.946C773.828 180.844 773.406 180.75 772.874 180.663L771.448 180.432C770.179 180.226 769.179 179.882 768.448 179.4C767.72 178.915 767.359 178.253 767.364 177.415C767.359 176.734 767.601 176.139 768.091 175.629C768.585 175.116 769.268 174.716 770.14 174.43C771.016 174.143 772.021 174 773.154 174C774.31 174 775.31 174.145 776.154 174.435C776.998 174.725 777.648 175.133 778.105 175.66C778.566 176.184 778.8 176.797 778.804 177.499H775.084Z" fill="white"/>
<path d="M791.204 185.464C789.693 183.299 787.678 174.636 777.099 170.305C766.519 165.974 786.138 167.877 789.664 174.916C793.19 181.954 792.716 187.63 791.204 185.464Z" fill="white" fill-opacity="0.2"/>
<ellipse cx="746" cy="190.5" rx="21" ry="16.5" fill="#590046"/>
<path d="M748.084 185.499C748.047 185.15 747.872 184.877 747.559 184.682C747.252 184.486 746.783 184.389 746.154 184.389C745.753 184.389 745.424 184.425 745.168 184.499C744.916 184.568 744.73 184.664 744.608 184.787C744.487 184.909 744.424 185.049 744.42 185.206C744.41 185.335 744.441 185.452 744.51 185.557C744.585 185.658 744.702 185.75 744.86 185.834C745.019 185.915 745.221 185.988 745.469 186.054C745.716 186.121 746.009 186.18 746.35 186.232L747.524 186.421C748.317 186.547 748.995 186.713 749.559 186.919C750.124 187.125 750.585 187.367 750.944 187.647C751.303 187.923 751.566 188.233 751.734 188.579C751.907 188.925 751.995 189.302 752 189.71C751.995 190.416 751.76 191.013 751.294 191.502C750.828 191.991 750.161 192.363 749.294 192.618C748.431 192.873 747.394 193 746.182 193C744.937 193 743.851 192.862 742.923 192.586C742 192.31 741.282 191.886 740.769 191.313C740.261 190.737 740.005 190 740 189.103H743.692C743.716 189.431 743.825 189.707 744.021 189.93C744.217 190.154 744.492 190.323 744.846 190.439C745.205 190.554 745.632 190.611 746.126 190.611C746.541 190.611 746.888 190.573 747.168 190.496C747.448 190.419 747.66 190.313 747.804 190.177C747.949 190.04 748.023 189.885 748.028 189.71C748.023 189.546 747.951 189.403 747.811 189.281C747.676 189.155 747.452 189.043 747.14 188.946C746.828 188.844 746.406 188.75 745.874 188.663L744.448 188.432C743.179 188.226 742.179 187.882 741.448 187.4C740.72 186.915 740.359 186.253 740.364 185.415C740.359 184.734 740.601 184.139 741.091 183.629C741.585 183.116 742.268 182.716 743.14 182.43C744.016 182.143 745.021 182 746.154 182C747.31 182 748.31 182.145 749.154 182.435C749.998 182.725 750.648 183.133 751.105 183.66C751.566 184.184 751.8 184.797 751.804 185.499H748.084Z" fill="white"/>
<path d="M764.204 193.464C762.693 191.299 760.678 182.636 750.099 178.305C739.519 173.974 759.138 175.877 762.664 182.916C766.19 189.954 765.716 195.63 764.204 193.464Z" fill="white" fill-opacity="0.2"/>
<ellipse cx="715" cy="185.5" rx="21" ry="16.5" fill="#FF8A00"/>
<path d="M717.084 180.499C717.047 180.15 716.872 179.877 716.559 179.682C716.252 179.486 715.783 179.389 715.154 179.389C714.753 179.389 714.424 179.425 714.168 179.499C713.916 179.568 713.73 179.664 713.608 179.787C713.487 179.909 713.424 180.049 713.42 180.206C713.41 180.335 713.441 180.452 713.51 180.557C713.585 180.658 713.702 180.75 713.86 180.834C714.019 180.915 714.221 180.988 714.469 181.054C714.716 181.121 715.009 181.18 715.35 181.232L716.524 181.421C717.317 181.547 717.995 181.713 718.559 181.919C719.124 182.125 719.585 182.367 719.944 182.647C720.303 182.923 720.566 183.233 720.734 183.579C720.907 183.925 720.995 184.302 721 184.71C720.995 185.416 720.76 186.013 720.294 186.502C719.828 186.991 719.161 187.363 718.294 187.618C717.431 187.873 716.394 188 715.182 188C713.937 188 712.851 187.862 711.923 187.586C711 187.31 710.282 186.886 709.769 186.313C709.261 185.737 709.005 185 709 184.103H712.692C712.716 184.431 712.825 184.707 713.021 184.93C713.217 185.154 713.492 185.323 713.846 185.439C714.205 185.554 714.632 185.611 715.126 185.611C715.541 185.611 715.888 185.573 716.168 185.496C716.448 185.419 716.66 185.313 716.804 185.177C716.949 185.04 717.023 184.885 717.028 184.71C717.023 184.546 716.951 184.403 716.811 184.281C716.676 184.155 716.452 184.043 716.14 183.946C715.828 183.844 715.406 183.75 714.874 183.663L713.448 183.432C712.179 183.226 711.179 182.882 710.448 182.4C709.72 181.915 709.359 181.253 709.364 180.415C709.359 179.734 709.601 179.139 710.091 178.629C710.585 178.116 711.268 177.716 712.14 177.43C713.016 177.143 714.021 177 715.154 177C716.31 177 717.31 177.145 718.154 177.435C718.998 177.725 719.648 178.133 720.105 178.66C720.566 179.184 720.8 179.797 720.804 180.499H717.084Z" fill="white"/>
<path d="M733.204 188.464C731.693 186.299 729.678 177.636 719.099 173.305C708.519 168.974 728.138 170.877 731.664 177.916C735.19 184.954 734.716 190.63 733.204 188.464Z" fill="white" fill-opacity="0.2"/>
</svg>
