<svg width="728" height="208" viewBox="0 0 728 208" fill="none" xmlns="http://www.w3.org/2000/svg">
<path d="M686.137 171.767C686.706 168.782 685.818 166.509 683.473 164.946C681.2 163.312 678.464 162.104 675.267 161.322C672.141 160.47 669.619 159.795 667.7 159.297C663.366 158.161 659.068 156.704 654.805 154.928C650.542 153.081 646.67 150.807 643.188 148.107C639.778 145.336 637.042 142.032 634.982 138.196C632.993 134.288 632.104 129.741 632.318 124.554C632.531 118.16 634.129 112.618 637.113 107.929C640.169 103.239 644.112 99.3673 648.943 96.3121C653.774 93.186 659.032 90.8768 664.716 89.3848C670.471 87.8928 676.191 87.2178 681.875 87.3599C689.69 87.431 697.044 88.8164 703.935 91.5163C710.898 94.2162 716.547 98.337 720.881 103.879C725.286 109.421 727.524 116.455 727.595 124.981L692.745 124.874C692.816 122.103 692.461 119.687 691.679 117.627C690.969 115.567 689.725 114.003 687.949 112.938C686.173 111.801 683.757 111.232 680.702 111.232C678.429 111.232 676.191 111.694 673.988 112.618C671.786 113.542 669.867 114.856 668.233 116.561C666.67 118.266 665.675 120.327 665.249 122.742C664.823 124.803 665.107 126.544 666.102 127.965C667.096 129.315 668.446 130.416 670.151 131.268C671.857 132.121 673.633 132.832 675.48 133.4C677.398 133.897 679.104 134.288 680.596 134.572C687.061 136.135 693.313 138.231 699.353 140.86C705.463 143.418 710.436 147.077 714.273 151.837C718.181 156.526 720.028 162.779 719.815 170.594C719.602 177.202 717.826 182.85 714.486 187.54C711.147 192.158 706.848 195.923 701.591 198.836C696.404 201.678 690.791 203.739 684.752 205.018C678.784 206.368 672.993 207.007 667.38 206.936C659.565 206.794 652.176 205.231 645.213 202.247C638.25 199.192 632.566 194.787 628.161 189.032C623.827 183.206 621.554 176.065 621.34 167.61L653.739 167.717C653.81 171.056 654.414 173.863 655.551 176.136C656.759 178.339 658.499 180.044 660.773 181.252C663.046 182.388 665.853 182.957 669.192 182.957C671.679 182.957 674.095 182.602 676.439 181.891C678.855 181.11 680.915 179.902 682.621 178.268C684.397 176.562 685.569 174.395 686.137 171.767Z" fill="#9F1239"/>
<path d="M562.618 206.936C554.66 206.794 547.413 205.338 540.877 202.567C534.34 199.725 528.798 195.817 524.251 190.843C519.704 185.87 516.329 180.044 514.126 173.365C511.995 166.616 511.213 159.262 511.782 151.304L512.208 147.148C513.061 138.764 515.05 130.949 518.176 123.702C521.302 116.384 525.494 109.989 530.752 104.518C536.01 98.9766 542.191 94.6781 549.296 91.623C556.472 88.5679 564.5 87.1469 573.382 87.36C581.41 87.5021 588.338 89.1007 594.164 92.1559C600.061 95.211 604.856 99.3674 608.551 104.625C612.246 109.812 614.803 115.78 616.224 122.529C617.716 129.208 618.072 136.313 617.29 143.844L615.265 158.445H523.612L527.235 135.958L583.719 136.064L584.359 132.974C584.856 129.634 584.714 126.615 583.932 123.915C583.151 121.215 581.694 119.084 579.563 117.52C577.431 115.886 574.554 114.998 570.93 114.856C566.525 114.785 562.866 115.744 559.953 117.734C557.111 119.723 554.802 122.352 553.026 125.62C551.321 128.888 550.006 132.441 549.083 136.278C548.159 140.043 547.484 143.667 547.058 147.148L546.632 151.198C546.347 154.679 546.454 158.054 546.951 161.322C547.449 164.591 548.443 167.539 549.935 170.168C551.498 172.797 553.594 174.928 556.223 176.563C558.852 178.126 562.156 178.978 566.135 179.12C571.463 179.262 576.437 178.268 581.055 176.136C585.673 174.005 589.83 171.092 593.524 167.397L608.125 186.794C604.928 191.625 600.807 195.533 595.762 198.517C590.718 201.43 585.282 203.561 579.456 204.911C573.701 206.332 568.088 207.007 562.618 206.936Z" fill="#9F1239"/>
<path d="M512.741 41.1066L484.392 204.804H449.222L477.571 41.1066H512.741Z" fill="#9F1239"/>
<path d="M453.592 89.4913L449.222 114.43H381.654L386.024 89.4913H453.592ZM405.1 60.8229H440.163L421.832 167.397C421.548 169.884 421.548 171.944 421.832 173.578C422.117 175.141 422.863 176.349 424.071 177.202C425.349 177.983 427.303 178.445 429.932 178.587C431.424 178.658 432.916 178.623 434.408 178.481C435.9 178.339 437.392 178.196 438.884 178.054L436.433 204.058C433.378 205.053 430.252 205.764 427.055 206.19C423.928 206.616 420.731 206.829 417.463 206.829C410.216 206.687 404.141 205.231 399.239 202.46C394.407 199.618 390.89 195.604 388.688 190.417C386.556 185.159 385.81 178.907 386.45 171.66L405.1 60.8229Z" fill="#9F1239"/>
<path d="M380.694 89.4913L376.325 114.43H308.757L313.126 89.4913H380.694ZM332.203 60.8229H367.266L348.935 167.397C348.651 169.884 348.651 171.944 348.935 173.578C349.22 175.141 349.966 176.349 351.173 177.202C352.452 177.983 354.406 178.445 357.035 178.587C358.527 178.658 360.019 178.623 361.511 178.481C363.003 178.339 364.495 178.196 365.987 178.054L363.536 204.058C360.481 205.053 357.355 205.764 354.158 206.19C351.031 206.616 347.834 206.829 344.566 206.829C337.319 206.687 331.244 205.231 326.342 202.46C321.51 199.618 317.993 195.604 315.791 190.417C313.659 185.159 312.913 178.907 313.553 171.66L332.203 60.8229Z" fill="#9F1239"/>
<path d="M300.337 89.4911L280.408 204.804H245.238L265.274 89.4911H300.337Z" fill="#9F1239"/>
<path d="M191.418 41L162.963 204.804H127.9L156.355 41H191.418ZM255.789 89.4912L196.533 148.746L166.799 174.644L154.543 150.025L180.014 122.423L211.347 89.4912H255.789ZM197.919 204.804L176.711 150.984L204.313 133.08L236.499 204.804H197.919Z" fill="#9F1239"/>
<path d="M81.5393 162.814C82.1788 159.475 81.9301 156.633 80.7933 154.288C79.7276 151.944 78.0934 149.954 75.8909 148.32C73.7594 146.686 71.3082 145.301 68.5373 144.164C65.8374 142.956 63.2086 141.855 60.6508 140.86C55.1089 138.657 49.6381 136.171 44.2384 133.4C38.8386 130.558 33.9362 127.218 29.5312 123.382C25.1261 119.545 21.6802 115.069 19.1935 109.953C16.7778 104.838 15.7476 98.8343 16.1028 91.9425C16.6002 84.056 18.8382 77.2708 22.817 71.5868C26.7958 65.9029 31.8758 61.2847 38.0571 57.7322C44.3094 54.1087 51.0236 51.4798 58.1996 49.8457C65.4466 48.1405 72.516 47.359 79.4078 47.5011C89.2127 47.6432 97.9517 49.6326 105.625 53.4692C113.369 57.3059 119.444 62.8122 123.849 69.9882C128.254 77.0931 130.386 85.6901 130.244 95.7791H94.1151C94.2572 91.8004 93.7243 88.3545 92.5164 85.4414C91.3797 82.4574 89.4968 80.1483 86.868 78.5141C84.2392 76.8089 80.8288 75.9208 76.6369 75.8498C73.1555 75.7787 69.6741 76.3471 66.1927 77.555C62.7112 78.6918 59.6916 80.468 57.1339 82.8837C54.5761 85.2993 52.9419 88.4255 52.2314 92.2622C51.7341 95.1752 52.1959 97.733 53.6169 99.9355C55.0379 102.067 56.9918 103.914 59.4785 105.477C61.9652 106.969 64.5585 108.248 67.2584 109.314C70.0293 110.38 72.445 111.303 74.5054 112.085C80.3315 114.287 85.9089 116.881 91.2376 119.865C96.6373 122.778 101.398 126.224 105.518 130.203C109.71 134.181 112.908 138.835 115.11 144.164C117.384 149.421 118.307 155.532 117.881 162.495C117.313 170.523 115.181 177.379 111.487 183.063C107.792 188.747 103.032 193.365 97.2057 196.918C91.3797 200.47 84.9852 203.064 78.0224 204.698C71.0595 206.332 63.9901 207.114 56.8141 207.042C48.7856 206.9 41.2898 205.693 34.327 203.419C27.3642 201.074 21.2894 197.699 16.1028 193.294C10.9162 188.818 6.90194 183.347 4.05996 176.882C1.21799 170.345 -0.131949 162.85 0.0101499 154.395L36.5651 154.501C36.3519 158.48 36.6006 161.997 37.3111 165.052C38.0926 168.036 39.3715 170.559 41.1477 172.619C42.995 174.608 45.3752 176.136 48.2882 177.202C51.2012 178.196 54.7182 178.694 58.839 178.694C62.3205 178.694 65.6598 178.161 68.857 177.095C72.1253 175.958 74.8962 174.218 77.1698 171.873C79.4434 169.528 80.8999 166.509 81.5393 162.814Z" fill="#9F1239"/>
<path d="M230 76.294L256.67 76.2926L283.145 41.1431L256.475 41.1431L230 76.294Z" fill="#9F1239"/>
<path d="M230 4.87674e-06L256.67 1.37176e-06L283.145 35.1509L256.475 35.1509L230 4.87674e-06Z" fill="#9F1239"/>
<path d="M316.989 35.1512L290.319 35.1512L263.844 0.000310053L290.513 0.000306548L316.989 35.1512Z" fill="#9F1239"/>
<path d="M316.989 41.1448L290.319 41.1449L263.843 76.2957L290.513 76.2957L316.989 41.1448Z" fill="#9F1239"/>
</svg>
