<svg width="42" height="33" viewBox="0 0 42 33" fill="none" xmlns="http://www.w3.org/2000/svg">
<ellipse cx="21" cy="16.5" rx="21" ry="16.5" fill="#FF3434"/>
<path d="M23.0839 11.499C23.0466 11.1498 22.8718 10.8775 22.5594 10.6819C22.2517 10.4863 21.7832 10.3886 21.1538 10.3886C20.7529 10.3886 20.4242 10.4252 20.1678 10.4986C19.9161 10.5684 19.7296 10.6644 19.6084 10.7867C19.4872 10.9089 19.4242 11.0486 19.4196 11.2057C19.4103 11.3349 19.4406 11.4519 19.5105 11.5567C19.5851 11.6579 19.7016 11.7505 19.8601 11.8343C20.0186 11.9146 20.2214 11.9879 20.4685 12.0543C20.7156 12.1206 21.0093 12.18 21.3497 12.2324L22.5245 12.421C23.317 12.5467 23.9953 12.7125 24.5594 12.9186C25.1235 13.1246 25.5851 13.3673 25.9441 13.6467C26.303 13.9225 26.5664 14.2333 26.7343 14.579C26.9068 14.9248 26.9953 15.3019 27 15.7105C26.9953 16.4159 26.7599 17.013 26.2937 17.5019C25.8275 17.9908 25.1608 18.3627 24.2937 18.6176C23.4312 18.8725 22.3939 19 21.1818 19C19.9371 19 18.8508 18.8621 17.9231 18.5862C17 18.3103 16.2821 17.886 15.7692 17.3133C15.2611 16.7371 15.0047 16.0003 15 15.1029H18.6923C18.7156 15.4311 18.8252 15.707 19.021 15.9305C19.2168 16.154 19.4918 16.3233 19.8462 16.4386C20.2051 16.5538 20.6317 16.6114 21.1259 16.6114C21.5408 16.6114 21.8881 16.573 22.1678 16.4962C22.4476 16.4194 22.6597 16.3129 22.8042 16.1767C22.9487 16.0405 23.0233 15.8851 23.028 15.7105C23.0233 15.5463 22.951 15.4032 22.8112 15.281C22.676 15.1552 22.4522 15.0435 22.1399 14.9457C21.8275 14.8444 21.4056 14.7502 20.8741 14.6629L19.4476 14.4324C18.1795 14.2263 17.1795 13.8824 16.4476 13.4005C15.7203 12.9151 15.359 12.2533 15.3636 11.4152C15.359 10.7343 15.6014 10.1389 16.0909 9.62905C16.5851 9.11571 17.2681 8.71587 18.1399 8.42952C19.0163 8.14317 20.021 8 21.1538 8C22.31 8 23.31 8.14492 24.1538 8.43476C24.9977 8.7246 25.648 9.13318 26.1049 9.66048C26.5664 10.1843 26.7995 10.7971 26.8042 11.499H23.0839Z" fill="white"/>
<path d="M39.2045 19.4643C37.6931 17.2987 35.678 8.63619 25.0987 4.30495C14.5193 -0.0262957 34.1376 1.87746 37.664 8.91574C41.1904 15.954 40.7158 21.6299 39.2045 19.4643Z" fill="white" fill-opacity="0.2"/>
</svg>
